<mxfile host="app.diagrams.net" agent="Mozilla/5.0 (Windows NT 10.0; Win64; x64) AppleWebKit/537.36 (KHTML, like Gecko) Chrome/136.0.0.0 Safari/537.36" version="26.2.13">
  <diagram name="Trang-1" id="D9kbNR4Y4z5BwE0H5Da0">
    <mxGraphModel dx="728" dy="394" grid="1" gridSize="10" guides="1" tooltips="1" connect="1" arrows="1" fold="1" page="1" pageScale="1" pageWidth="1169" pageHeight="827" math="0" shadow="0">
      <root>
        <mxCell id="0" />
        <mxCell id="1" parent="0" />
        <mxCell id="RE8hw0GTR6m2Dy88vsNo-1" value="Nhân viên kho" style="shape=umlActor;verticalLabelPosition=bottom;verticalAlign=top;html=1;outlineConnect=0;" parent="1" vertex="1">
          <mxGeometry x="120" y="29" width="30" height="60" as="geometry" />
        </mxCell>
        <mxCell id="RE8hw0GTR6m2Dy88vsNo-2" value="Quản lý kho" style="shape=umlActor;verticalLabelPosition=bottom;verticalAlign=top;html=1;outlineConnect=0;" parent="1" vertex="1">
          <mxGeometry x="895" y="33" width="30" height="60" as="geometry" />
        </mxCell>
        <mxCell id="RE8hw0GTR6m2Dy88vsNo-5" value="" style="endArrow=classic;html=1;rounded=0;entryX=0;entryY=0.5;entryDx=0;entryDy=0;" parent="1" target="RE8hw0GTR6m2Dy88vsNo-6" edge="1" source="RE8hw0GTR6m2Dy88vsNo-1">
          <mxGeometry width="50" height="50" relative="1" as="geometry">
            <mxPoint x="140" y="200" as="sourcePoint" />
            <mxPoint x="200" y="170" as="targetPoint" />
          </mxGeometry>
        </mxCell>
        <mxCell id="RE8hw0GTR6m2Dy88vsNo-16" value="" style="swimlane;startSize=0;" parent="1" vertex="1">
          <mxGeometry x="200" y="21" width="670" height="309" as="geometry" />
        </mxCell>
        <mxCell id="0RWC0uuBtocXuPP7cz6o-1" style="edgeStyle=orthogonalEdgeStyle;rounded=0;orthogonalLoop=1;jettySize=auto;html=1;" edge="1" parent="RE8hw0GTR6m2Dy88vsNo-16" source="RE8hw0GTR6m2Dy88vsNo-6" target="RE8hw0GTR6m2Dy88vsNo-15">
          <mxGeometry relative="1" as="geometry" />
        </mxCell>
        <mxCell id="0RWC0uuBtocXuPP7cz6o-5" style="edgeStyle=orthogonalEdgeStyle;rounded=0;orthogonalLoop=1;jettySize=auto;html=1;entryX=0;entryY=0.5;entryDx=0;entryDy=0;" edge="1" parent="RE8hw0GTR6m2Dy88vsNo-16" source="RE8hw0GTR6m2Dy88vsNo-6" target="RE8hw0GTR6m2Dy88vsNo-46">
          <mxGeometry relative="1" as="geometry">
            <Array as="points">
              <mxPoint x="61" y="88" />
            </Array>
          </mxGeometry>
        </mxCell>
        <mxCell id="0RWC0uuBtocXuPP7cz6o-7" style="edgeStyle=orthogonalEdgeStyle;rounded=0;orthogonalLoop=1;jettySize=auto;html=1;entryX=0;entryY=0.5;entryDx=0;entryDy=0;" edge="1" parent="RE8hw0GTR6m2Dy88vsNo-16" source="RE8hw0GTR6m2Dy88vsNo-6" target="RE8hw0GTR6m2Dy88vsNo-32">
          <mxGeometry relative="1" as="geometry">
            <Array as="points">
              <mxPoint x="61" y="91" />
              <mxPoint x="60" y="144" />
            </Array>
          </mxGeometry>
        </mxCell>
        <mxCell id="0RWC0uuBtocXuPP7cz6o-16" style="edgeStyle=orthogonalEdgeStyle;rounded=0;orthogonalLoop=1;jettySize=auto;html=1;entryX=0;entryY=0.5;entryDx=0;entryDy=0;" edge="1" parent="RE8hw0GTR6m2Dy88vsNo-16" source="RE8hw0GTR6m2Dy88vsNo-6" target="RE8hw0GTR6m2Dy88vsNo-38">
          <mxGeometry relative="1" as="geometry">
            <Array as="points">
              <mxPoint x="61" y="205" />
            </Array>
          </mxGeometry>
        </mxCell>
        <mxCell id="RE8hw0GTR6m2Dy88vsNo-6" value="Đăng nhập" style="rounded=1;whiteSpace=wrap;html=1;" parent="RE8hw0GTR6m2Dy88vsNo-16" vertex="1">
          <mxGeometry x="20.5" y="23" width="80" height="30" as="geometry" />
        </mxCell>
        <mxCell id="RE8hw0GTR6m2Dy88vsNo-58" value="" style="edgeStyle=orthogonalEdgeStyle;rounded=0;orthogonalLoop=1;jettySize=auto;html=1;" parent="RE8hw0GTR6m2Dy88vsNo-16" source="RE8hw0GTR6m2Dy88vsNo-15" target="RE8hw0GTR6m2Dy88vsNo-57" edge="1">
          <mxGeometry relative="1" as="geometry" />
        </mxCell>
        <mxCell id="RE8hw0GTR6m2Dy88vsNo-15" value="Cập nhật&lt;div&gt;mức tồn kho&lt;/div&gt;" style="rounded=1;whiteSpace=wrap;html=1;" parent="RE8hw0GTR6m2Dy88vsNo-16" vertex="1">
          <mxGeometry x="130" y="24" width="110" height="30" as="geometry" />
        </mxCell>
        <mxCell id="0RWC0uuBtocXuPP7cz6o-8" style="edgeStyle=orthogonalEdgeStyle;rounded=0;orthogonalLoop=1;jettySize=auto;html=1;entryX=1;entryY=0.5;entryDx=0;entryDy=0;" edge="1" parent="RE8hw0GTR6m2Dy88vsNo-16" source="RE8hw0GTR6m2Dy88vsNo-17" target="RE8hw0GTR6m2Dy88vsNo-22">
          <mxGeometry relative="1" as="geometry" />
        </mxCell>
        <mxCell id="0RWC0uuBtocXuPP7cz6o-15" style="edgeStyle=orthogonalEdgeStyle;rounded=0;orthogonalLoop=1;jettySize=auto;html=1;entryX=1;entryY=0.5;entryDx=0;entryDy=0;" edge="1" parent="RE8hw0GTR6m2Dy88vsNo-16" source="RE8hw0GTR6m2Dy88vsNo-17" target="RE8hw0GTR6m2Dy88vsNo-38">
          <mxGeometry relative="1" as="geometry">
            <Array as="points">
              <mxPoint x="560" y="205" />
            </Array>
          </mxGeometry>
        </mxCell>
        <mxCell id="RE8hw0GTR6m2Dy88vsNo-17" value="Đăng nhập" style="rounded=1;whiteSpace=wrap;html=1;" parent="RE8hw0GTR6m2Dy88vsNo-16" vertex="1">
          <mxGeometry x="524" y="27" width="80" height="30" as="geometry" />
        </mxCell>
        <mxCell id="RE8hw0GTR6m2Dy88vsNo-24" value="Danh sách báo cáo" style="rounded=1;whiteSpace=wrap;html=1;" parent="RE8hw0GTR6m2Dy88vsNo-16" vertex="1">
          <mxGeometry x="400" y="131" width="80" height="30" as="geometry" />
        </mxCell>
        <mxCell id="0RWC0uuBtocXuPP7cz6o-14" style="edgeStyle=orthogonalEdgeStyle;rounded=0;orthogonalLoop=1;jettySize=auto;html=1;" edge="1" parent="RE8hw0GTR6m2Dy88vsNo-16" source="RE8hw0GTR6m2Dy88vsNo-22" target="RE8hw0GTR6m2Dy88vsNo-24">
          <mxGeometry relative="1" as="geometry" />
        </mxCell>
        <mxCell id="RE8hw0GTR6m2Dy88vsNo-22" value="Xem báo cáo" style="rounded=1;whiteSpace=wrap;html=1;" parent="RE8hw0GTR6m2Dy88vsNo-16" vertex="1">
          <mxGeometry x="400" y="27" width="80" height="30" as="geometry" />
        </mxCell>
        <mxCell id="0RWC0uuBtocXuPP7cz6o-12" style="edgeStyle=orthogonalEdgeStyle;rounded=0;orthogonalLoop=1;jettySize=auto;html=1;" edge="1" parent="RE8hw0GTR6m2Dy88vsNo-16" source="RE8hw0GTR6m2Dy88vsNo-20" target="RE8hw0GTR6m2Dy88vsNo-24">
          <mxGeometry relative="1" as="geometry" />
        </mxCell>
        <mxCell id="RE8hw0GTR6m2Dy88vsNo-20" value="Tạo một báo cáo" style="rounded=1;whiteSpace=wrap;html=1;" parent="RE8hw0GTR6m2Dy88vsNo-16" vertex="1">
          <mxGeometry x="264.37" y="131" width="95.63" height="30" as="geometry" />
        </mxCell>
        <mxCell id="RE8hw0GTR6m2Dy88vsNo-35" value="" style="edgeStyle=orthogonalEdgeStyle;rounded=0;orthogonalLoop=1;jettySize=auto;html=1;" parent="RE8hw0GTR6m2Dy88vsNo-16" source="RE8hw0GTR6m2Dy88vsNo-32" target="RE8hw0GTR6m2Dy88vsNo-20" edge="1">
          <mxGeometry relative="1" as="geometry" />
        </mxCell>
        <mxCell id="RE8hw0GTR6m2Dy88vsNo-32" value="Gửi báo cáo" style="rounded=1;whiteSpace=wrap;html=1;" parent="RE8hw0GTR6m2Dy88vsNo-16" vertex="1">
          <mxGeometry x="130" y="131" width="80" height="30" as="geometry" />
        </mxCell>
        <mxCell id="0RWC0uuBtocXuPP7cz6o-17" value="" style="edgeStyle=orthogonalEdgeStyle;rounded=0;orthogonalLoop=1;jettySize=auto;html=1;" edge="1" parent="RE8hw0GTR6m2Dy88vsNo-16" source="RE8hw0GTR6m2Dy88vsNo-38" target="RE8hw0GTR6m2Dy88vsNo-54">
          <mxGeometry relative="1" as="geometry" />
        </mxCell>
        <mxCell id="RE8hw0GTR6m2Dy88vsNo-38" value="Theo dõi hàng hoá" style="rounded=1;whiteSpace=wrap;html=1;" parent="RE8hw0GTR6m2Dy88vsNo-16" vertex="1">
          <mxGeometry x="257.18" y="189" width="110" height="31" as="geometry" />
        </mxCell>
        <mxCell id="0RWC0uuBtocXuPP7cz6o-6" value="" style="edgeStyle=orthogonalEdgeStyle;rounded=0;orthogonalLoop=1;jettySize=auto;html=1;entryX=0.035;entryY=0.379;entryDx=0;entryDy=0;entryPerimeter=0;" edge="1" parent="RE8hw0GTR6m2Dy88vsNo-16" source="RE8hw0GTR6m2Dy88vsNo-46" target="RE8hw0GTR6m2Dy88vsNo-47">
          <mxGeometry relative="1" as="geometry" />
        </mxCell>
        <mxCell id="RE8hw0GTR6m2Dy88vsNo-46" value="Kiểm kê hàng hoá" style="rounded=1;whiteSpace=wrap;html=1;" parent="RE8hw0GTR6m2Dy88vsNo-16" vertex="1">
          <mxGeometry x="130" y="74" width="110" height="30" as="geometry" />
        </mxCell>
        <mxCell id="RE8hw0GTR6m2Dy88vsNo-47" value="Bảng xuất nhập hàng hoá" style="rounded=1;whiteSpace=wrap;html=1;" parent="RE8hw0GTR6m2Dy88vsNo-16" vertex="1">
          <mxGeometry x="264.37" y="74" width="95.63" height="40" as="geometry" />
        </mxCell>
        <mxCell id="RE8hw0GTR6m2Dy88vsNo-54" value="Bảng danh sách hàng hoá" style="rounded=1;whiteSpace=wrap;html=1;" parent="RE8hw0GTR6m2Dy88vsNo-16" vertex="1">
          <mxGeometry x="272" y="249" width="80" height="47" as="geometry" />
        </mxCell>
        <mxCell id="RE8hw0GTR6m2Dy88vsNo-57" value="Thay đổi số lượng hàng hoá" style="whiteSpace=wrap;html=1;rounded=1;" parent="RE8hw0GTR6m2Dy88vsNo-16" vertex="1">
          <mxGeometry x="270" y="21" width="88.25" height="36" as="geometry" />
        </mxCell>
        <mxCell id="RE8hw0GTR6m2Dy88vsNo-18" value="" style="endArrow=classic;html=1;rounded=0;entryX=1;entryY=0.5;entryDx=0;entryDy=0;" parent="1" target="RE8hw0GTR6m2Dy88vsNo-17" edge="1" source="RE8hw0GTR6m2Dy88vsNo-2">
          <mxGeometry width="50" height="50" relative="1" as="geometry">
            <mxPoint x="760" y="230" as="sourcePoint" />
            <mxPoint x="746" y="120" as="targetPoint" />
          </mxGeometry>
        </mxCell>
      </root>
    </mxGraphModel>
  </diagram>
</mxfile>
